<mxfile host="app.diagrams.net" agent="Mozilla/5.0 (Windows NT 10.0; Win64; x64) AppleWebKit/537.36 (KHTML, like Gecko) Chrome/137.0.0.0 Safari/537.36 Edg/137.0.0.0" version="27.1.6">
  <diagram name="第 1 页" id="FKc3oLcggwEsgFmB60Mv">
    <mxGraphModel dx="731" dy="509" grid="1" gridSize="10" guides="1" tooltips="1" connect="1" arrows="1" fold="1" page="1" pageScale="1" pageWidth="827" pageHeight="1169" math="0" shadow="0">
      <root>
        <mxCell id="0" />
        <mxCell id="1" parent="0" />
        <mxCell id="OUxkE_dczDo7Hmg-C99z-3" value="" style="edgeStyle=orthogonalEdgeStyle;rounded=0;orthogonalLoop=1;jettySize=auto;html=1;" edge="1" parent="1" source="OUxkE_dczDo7Hmg-C99z-1" target="OUxkE_dczDo7Hmg-C99z-2">
          <mxGeometry relative="1" as="geometry" />
        </mxCell>
        <mxCell id="OUxkE_dczDo7Hmg-C99z-1" value="START" style="rounded=1;whiteSpace=wrap;html=1;" vertex="1" parent="1">
          <mxGeometry x="70" y="170" width="120" height="60" as="geometry" />
        </mxCell>
        <mxCell id="OUxkE_dczDo7Hmg-C99z-5" value="" style="edgeStyle=orthogonalEdgeStyle;rounded=0;orthogonalLoop=1;jettySize=auto;html=1;" edge="1" parent="1" source="OUxkE_dczDo7Hmg-C99z-2" target="OUxkE_dczDo7Hmg-C99z-4">
          <mxGeometry relative="1" as="geometry" />
        </mxCell>
        <mxCell id="OUxkE_dczDo7Hmg-C99z-2" value="plan node" style="whiteSpace=wrap;html=1;rounded=1;" vertex="1" parent="1">
          <mxGeometry x="270" y="170" width="120" height="60" as="geometry" />
        </mxCell>
        <mxCell id="OUxkE_dczDo7Hmg-C99z-7" value="" style="edgeStyle=orthogonalEdgeStyle;rounded=0;orthogonalLoop=1;jettySize=auto;html=1;" edge="1" parent="1" source="OUxkE_dczDo7Hmg-C99z-4" target="OUxkE_dczDo7Hmg-C99z-6">
          <mxGeometry relative="1" as="geometry" />
        </mxCell>
        <mxCell id="OUxkE_dczDo7Hmg-C99z-13" style="rounded=0;orthogonalLoop=1;jettySize=auto;html=1;exitX=1;exitY=0;exitDx=0;exitDy=0;entryX=0;entryY=1;entryDx=0;entryDy=0;" edge="1" parent="1" source="OUxkE_dczDo7Hmg-C99z-4" target="OUxkE_dczDo7Hmg-C99z-9">
          <mxGeometry relative="1" as="geometry" />
        </mxCell>
        <mxCell id="OUxkE_dczDo7Hmg-C99z-14" style="rounded=0;orthogonalLoop=1;jettySize=auto;html=1;exitX=1;exitY=1;exitDx=0;exitDy=0;entryX=0;entryY=0;entryDx=0;entryDy=0;" edge="1" parent="1" source="OUxkE_dczDo7Hmg-C99z-4" target="OUxkE_dczDo7Hmg-C99z-11">
          <mxGeometry relative="1" as="geometry" />
        </mxCell>
        <mxCell id="OUxkE_dczDo7Hmg-C99z-4" value="router" style="whiteSpace=wrap;html=1;rounded=1;" vertex="1" parent="1">
          <mxGeometry x="470" y="170" width="120" height="60" as="geometry" />
        </mxCell>
        <mxCell id="OUxkE_dczDo7Hmg-C99z-6" value="web search node" style="whiteSpace=wrap;html=1;rounded=1;" vertex="1" parent="1">
          <mxGeometry x="670" y="170" width="120" height="60" as="geometry" />
        </mxCell>
        <mxCell id="OUxkE_dczDo7Hmg-C99z-9" value="sql node" style="whiteSpace=wrap;html=1;rounded=1;" vertex="1" parent="1">
          <mxGeometry x="670" y="30" width="120" height="60" as="geometry" />
        </mxCell>
        <mxCell id="OUxkE_dczDo7Hmg-C99z-11" value="report node" style="whiteSpace=wrap;html=1;rounded=1;" vertex="1" parent="1">
          <mxGeometry x="670" y="310" width="120" height="60" as="geometry" />
        </mxCell>
      </root>
    </mxGraphModel>
  </diagram>
</mxfile>
